<svg xmlns="http://www.w3.org/2000/svg" viewBox="0 0 40 40">
  <defs>
    <style>
      .cls-1 {
        fill: #5edf59;
      }
    </style>
  </defs>
  <g id="Symbol_4_1" data-name="Symbol 4 – 1" transform="translate(-594 -447)">
    <path id="Exclusion_3" data-name="Exclusion 3" class="cls-1" d="M-3174,17a19.87,19.87,0,0,1-14.142-5.858A19.87,19.87,0,0,1-3194-3a19.871,19.871,0,0,1,5.858-14.142A19.869,19.869,0,0,1-3174-23a19.87,19.87,0,0,1,14.143,5.858A19.87,19.87,0,0,1-3154-3a19.869,19.869,0,0,1-5.858,14.142A19.87,19.87,0,0,1-3174,17Zm-8.342-20.7a2.483,2.483,0,0,0-1.768.733,2.482,2.482,0,0,0-.733,1.767,2.484,2.484,0,0,0,.733,1.769l4.949,4.949a2.483,2.483,0,0,0,1.768.732,2.486,2.486,0,0,0,1.769-.732L-3163.6-6.5a2.505,2.505,0,0,0,0-3.536,2.484,2.484,0,0,0-1.768-.732,2.482,2.482,0,0,0-1.768.732L-3177.393.213l-3.181-3.182A2.484,2.484,0,0,0-3182.342-3.7Z" transform="translate(3788 470)"/>
  </g>
</svg>
