<svg xmlns="http://www.w3.org/2000/svg" viewBox="0 0 40 40">
  <defs>
    <style>
      .cls-1 {
        fill: #dc4d41;
      }
    </style>
  </defs>
  <g id="Symbol_5_1" data-name="Symbol 5 – 1" transform="translate(-1214 -447)">
    <path id="Exclusion_2" data-name="Exclusion 2" class="cls-1" d="M-3174,17a19.87,19.87,0,0,1-14.142-5.858A19.87,19.87,0,0,1-3194-3a19.871,19.871,0,0,1,5.858-14.142A19.869,19.869,0,0,1-3174-23a19.87,19.87,0,0,1,14.143,5.858A19.87,19.87,0,0,1-3154-3a19.869,19.869,0,0,1-5.858,14.142A19.87,19.87,0,0,1-3174,17Zm0-16.306h0l5.541,5.54a2.591,2.591,0,0,0,1.847.765,2.6,2.6,0,0,0,1.847-.765A2.593,2.593,0,0,0-3164,4.388a2.593,2.593,0,0,0-.765-1.847L-3170.307-3l5.542-5.541a2.615,2.615,0,0,0,0-3.694,2.6,2.6,0,0,0-1.847-.765,2.594,2.594,0,0,0-1.847.765L-3174-6.694l-5.54-5.541a2.6,2.6,0,0,0-1.847-.765,2.6,2.6,0,0,0-1.847.765,2.615,2.615,0,0,0,0,3.694L-3177.694-3l-5.541,5.541a2.615,2.615,0,0,0,0,3.694,2.6,2.6,0,0,0,1.847.765,2.6,2.6,0,0,0,1.848-.765l5.54-5.54Z" transform="translate(4408 470)"/>
  </g>
</svg>
